<svg width="80" height="64" viewBox="0 0 80 64" fill="none" xmlns="http://www.w3.org/2000/svg">
<path d="M15.3474 55.2856C12.8034 55.2856 10.5114 54.7336 8.47141 53.6296C6.43141 52.5016 4.82341 50.9536 3.64741 48.9856C2.49541 47.0176 1.91941 44.8216 1.91941 42.3976C1.91941 39.9736 2.49541 37.7776 3.64741 35.8096C4.82341 33.8416 6.43141 32.3056 8.47141 31.2016C10.5114 30.0736 12.8034 29.5096 15.3474 29.5096C17.8674 29.5096 20.1474 30.0736 22.1874 31.2016C24.2274 32.3056 25.8234 33.8416 26.9754 35.8096C28.1274 37.7536 28.7034 39.9496 28.7034 42.3976C28.7034 44.8456 28.1274 47.0536 26.9754 49.0216C25.8234 50.9656 24.2274 52.5016 22.1874 53.6296C20.1474 54.7336 17.8674 55.2856 15.3474 55.2856ZM15.3474 52.0816C17.1954 52.0816 18.8514 51.6616 20.3154 50.8216C21.8034 49.9816 22.9674 48.8296 23.8074 47.3656C24.6714 45.8776 25.1034 44.2216 25.1034 42.3976C25.1034 40.5736 24.6714 38.9296 23.8074 37.4656C22.9674 35.9776 21.8034 34.8136 20.3154 33.9736C18.8514 33.1336 17.1954 32.7136 15.3474 32.7136C13.4994 32.7136 11.8194 33.1336 10.3074 33.9736C8.81941 34.8136 7.64341 35.9776 6.77941 37.4656C5.93941 38.9296 5.51941 40.5736 5.51941 42.3976C5.51941 44.2216 5.93941 45.8776 6.77941 47.3656C7.64341 48.8296 8.81941 49.9816 10.3074 50.8216C11.8194 51.6616 13.4994 52.0816 15.3474 52.0816ZM57.5698 54.9976L57.5338 36.6376L48.4258 51.9376H46.7698L37.6618 36.7456V54.9976H34.2058V29.7976H37.1578L47.6698 47.5096L58.0378 29.7976H60.9898L61.0258 54.9976H57.5698Z" fill="white"/>
<path d="M76.6783 19.6296L75.2649 19.1974C75.0688 19.1374 74.8618 19.1938 74.7294 19.3431C74.386 19.7307 74.0092 20.0992 73.6093 20.4384C70.6452 22.9534 66.9246 23.8122 62.85 22.923C58.7957 22.0384 56.9322 19.6917 54.353 16.4439C54.1686 16.2116 53.981 15.9753 53.7891 15.7355C53.7673 15.7081 53.7416 15.6721 53.7144 15.6341C53.6428 15.5341 53.5536 15.4096 53.4281 15.2868C53.2576 15.1198 53.0719 14.9644 52.8761 14.8247C52.4716 14.5361 52.2018 14.0818 52.1361 13.5781L51.7024 10.2564C51.6836 10.1124 51.6098 9.97934 51.4971 9.88633C51.3846 9.79327 51.2423 9.74793 51.1017 9.76036L48.9617 9.94859C48.6692 9.97422 48.4637 10.2382 48.5027 10.5379L48.9187 13.7241C48.9642 14.073 48.8514 14.4278 48.6092 14.6975C48.2393 15.1093 48.0509 15.6175 48.0642 16.1671C48.2326 23.1159 52.8916 28.2592 60.5271 29.9252C63.8224 30.6442 67.3266 30.2142 70.3941 28.7144C71.0115 28.4125 71.5957 28.0746 72.1441 27.7026C72.9085 27.1841 73.6034 26.5993 74.2215 25.9534C75.3264 24.7989 76.1295 23.506 76.6087 22.1107C76.8142 21.5121 76.971 20.8914 77.0744 20.2658C77.1203 19.9887 76.948 19.7121 76.6783 19.6296ZM49.6332 10.9873L50.7136 10.8923L51.0011 13.0941L50.5648 13.1047L49.9117 13.1207L49.6332 10.9873ZM71.5314 26.7869C68.5608 28.8015 64.5296 29.6953 60.7032 28.8604C53.613 27.3133 49.2877 22.5773 49.1329 16.1915C49.1246 15.8485 49.2808 15.6007 49.4132 15.4532C49.728 15.1026 49.9232 14.6682 49.9802 14.2099L51.1886 14.1804C51.3811 14.7936 51.7672 15.3337 52.2911 15.7073C52.4387 15.8127 52.5786 15.9296 52.7067 16.0551C52.7595 16.1067 52.8063 16.1723 52.8607 16.2482C52.8956 16.297 52.9317 16.3474 52.9729 16.399C53.1639 16.6381 53.3508 16.8733 53.5345 17.1046C56.1583 20.4087 58.2307 23.0184 62.6737 23.9879C64.9004 24.4738 67.0495 24.4725 69.0614 23.9841C70.8865 23.5411 72.5656 22.707 74.0574 21.5029L74.0933 21.5204L74.2848 21.6139C73.5154 22.809 72.5337 23.8044 71.3974 24.575C68.9006 26.2684 65.662 26.8788 62.3163 26.1487C57.1068 25.012 53.3962 22.2084 51.8678 18.2542C51.758 17.97 51.4468 17.8196 51.1728 17.9182C50.8987 18.0167 50.7657 18.3271 50.8755 18.6113C52.548 22.9385 56.5485 25.9935 62.1401 27.2135C64.8685 27.8089 67.5783 27.5921 69.9764 26.5865C70.7048 26.281 71.3903 25.9098 72.0272 25.4778C73.3342 24.5912 74.4353 23.4489 75.2776 22.0989L75.424 22.1705C74.6693 24.017 73.2854 25.5973 71.5314 26.7869ZM75.7706 21.1541L75.5521 21.0475L74.9213 20.7393C75.0568 20.6076 75.1891 20.473 75.3175 20.3359L75.9274 20.5224C75.8817 20.7345 75.8294 20.9454 75.7706 21.1541Z" fill="white"/>
</svg>
