<svg width="50" height="50" viewBox="0 0 50 50" fill="none" xmlns="http://www.w3.org/2000/svg">
<g clip-path="url(#clip0_1_224)">
<path fill-rule="evenodd" clip-rule="evenodd" d="M45.3885 14.6162L43.7545 16.2502C40.214 13.1643 35.6745 11.4383 30.9545 11.4383C27.7766 11.4383 24.6004 12.2553 21.877 13.7072L28.7757 6.80851C29.3204 7.17106 29.9553 7.35319 30.5919 7.35319C31.4991 7.35319 32.4081 6.99064 33.1332 6.26383C34.5851 4.81191 34.5851 2.54128 33.1332 1.08936C32.4064 0.362553 31.4991 0 30.5919 0C29.6847 0 28.7757 0.362553 28.0506 1.08936C26.8711 2.36085 26.6889 4.17532 27.506 5.53702L18.7911 14.2519L17.157 12.6179L12.7094 17.0655L14.3434 18.6996L5.44638 27.5966C4.9017 27.234 4.26681 27.0519 3.63021 27.0519C2.72298 27.0519 1.81404 27.4145 1.08894 28.1413C-0.362979 29.5932 -0.362979 31.8638 1.08894 33.3157C1.81574 33.9506 2.72298 34.3149 3.63021 34.3149C4.53745 34.3149 5.44638 33.9523 6.17149 33.2255C7.35106 32.046 7.53319 30.2298 6.71617 28.7779L13.6149 21.8791C9.98426 28.8698 10.8013 37.5847 16.1562 43.7566L14.5221 45.4809L19.0617 49.9285L23.5094 45.4809L19.0617 41.0332L17.5179 42.577C12.2532 36.4034 11.9809 27.5081 16.4285 20.9719L17.1553 21.6987L21.6949 17.2511L20.8779 16.5243C23.7834 14.4357 27.3238 13.3464 30.9545 13.3464C35.2217 13.3464 39.2149 14.8902 42.483 17.6136L40.8489 19.1574L45.3885 23.6051L49.8362 19.1574L45.3885 14.6179V14.6162ZM20.9702 47.6596L19.0638 49.5659L17.1575 47.6596L19.0638 45.7532L20.9702 47.6596ZM29.3226 4.62977C29.6851 4.26722 30.1396 4.08509 30.5941 4.08509C31.0485 4.08509 31.5013 4.26722 31.8655 4.62977C32.5923 5.35658 32.5923 6.44595 31.8655 7.17105C31.503 7.5336 31.0485 7.71573 30.5941 7.71573C30.1396 7.71573 29.6868 7.5336 29.3226 7.17105C28.5958 6.53616 28.5958 5.35488 29.3226 4.62977ZM4.90214 34.1328C4.53958 34.4953 4.08511 34.6774 3.63065 34.6774C3.17618 34.6774 2.72341 34.4953 2.35916 34.1328C1.9966 33.8604 1.81448 33.4059 1.81448 32.8613C1.81448 32.4068 1.9966 31.954 2.35916 31.5898C2.72171 31.2255 3.17618 31.0451 3.63065 31.0451C4.08511 31.0451 4.53788 31.2272 4.90214 31.5898C5.62894 32.3166 5.62894 33.4962 4.90214 34.1311V34.1328ZM17.0672 21.3328L15.1609 19.4264L17.0672 17.52L18.9736 19.4264L17.0672 21.3328ZM45.3906 23.2391L43.4843 21.3328L45.3906 19.4264L47.297 21.3328L45.3906 23.2391Z" fill="#333333"/>
</g>
<defs>
<clipPath id="clip0_1_224">
<rect width="50" height="50" fill="white"/>
</clipPath>
</defs>
</svg>
